<svg id="SvgjsSvg1001" width="288" height="288" xmlns="http://www.w3.org/2000/svg" version="1.1" xmlns:xlink="http://www.w3.org/1999/xlink" xmlns:svgjs="http://svgjs.com/svgjs"><defs id="SvgjsDefs1002"></defs><g id="SvgjsG1008"><svg xmlns="http://www.w3.org/2000/svg" viewBox="0 0 512 512" width="288" height="288"><path fill="#ffffff" fill-rule="evenodd" d="M75.2939 135.529C75.2939 118.896 88.7781 105.412 105.412 105.412H406.588C423.222 105.412 436.706 118.896 436.706 135.529 436.706 152.163 423.222 165.647 406.588 165.647H105.412C88.7781 165.647 75.2939 152.163 75.2939 135.529ZM75.2939 376.47C75.2939 359.837 88.7781 346.353 105.412 346.353H406.588C423.222 346.353 436.706 359.837 436.706 376.47 436.706 393.104 423.222 406.588 406.588 406.588H105.412C88.7781 406.588 75.2939 393.104 75.2939 376.47ZM75.2939 256C75.2939 239.366 88.7781 225.882 105.412 225.882H406.588C423.222 225.882 436.706 239.366 436.706 256 436.706 272.633 423.222 286.118 406.588 286.118H105.412C88.7781 286.118 75.2939 272.633 75.2939 256Z" clip-rule="evenodd" class="svgShape color000000-0 selectable"></path></svg></g></svg>